<svg width="20" height="20" viewBox="0 0 20 20" fill="none" xmlns="http://www.w3.org/2000/svg">
<path d="M19.1306 7.41256C19.0729 7.24274 18.9668 7.09353 18.8253 6.98335C18.6838 6.87316 18.5132 6.80681 18.3344 6.79251L13.1053 6.377L10.8424 1.36798C10.7704 1.20665 10.6532 1.06963 10.5049 0.973442C10.3567 0.877257 10.1838 0.826025 10.0071 0.825928C9.83044 0.825831 9.6575 0.876874 9.50917 0.972896C9.36084 1.06892 9.24348 1.20582 9.17124 1.36707L6.90842 6.377L1.67927 6.79251C1.50358 6.80642 1.33562 6.87066 1.19548 6.97754C1.05534 7.08442 0.948961 7.2294 0.889066 7.39516C0.829171 7.56091 0.818296 7.74041 0.857744 7.91218C0.897192 8.08395 0.985291 8.24072 1.1115 8.36373L4.97581 12.1308L3.60913 18.0488C3.56763 18.2279 3.58093 18.4154 3.6473 18.5869C3.71368 18.7584 3.83006 18.9059 3.98135 19.0105C4.13263 19.115 4.31184 19.1716 4.49571 19.173C4.67959 19.1744 4.85964 19.1205 5.0125 19.0183L10.0068 15.6888L15.0012 19.0183C15.1574 19.1221 15.3417 19.1755 15.5292 19.1713C15.7167 19.1672 15.8984 19.1058 16.0499 18.9953C16.2015 18.8848 16.3156 18.7306 16.3768 18.5533C16.4381 18.3761 16.4436 18.1843 16.3926 18.0039L14.715 12.1336L18.8756 8.38941C19.148 8.14359 19.248 7.76019 19.1306 7.41256Z" fill="#F3CD03"/>
</svg>
